<svg width="26" height="26" viewBox="0 0 26 26" fill="none" xmlns="http://www.w3.org/2000/svg">
<path d="M13 26C20.1797 26 26 20.1797 26 13C26 5.8203 20.1797 0 13 0C5.8203 0 0 5.8203 0 13C0 20.1797 5.8203 26 13 26Z" fill="url(#paint0_linear_1294_52)"/>
<path d="M17.8413 16.9758L18.4188 13.3065H14.8063V10.9265C14.8063 9.92245 15.31 8.94318 16.9281 8.94318H18.5714V5.81936C18.5714 5.81936 17.0806 5.57144 15.656 5.57144C12.6795 5.57144 10.7359 7.32917 10.7359 10.51V13.3065H7.42859V16.9758H10.7359V25.8463C11.3998 25.948 12.0791 26 12.771 26C13.463 26 14.1423 25.948 14.8063 25.8463V16.9758H17.8413Z" fill="white"/>
<defs>
<linearGradient id="paint0_linear_1294_52" x1="13" y1="0" x2="13" y2="25.9229" gradientUnits="userSpaceOnUse">
<stop stop-color="#18ACFE"/>
<stop offset="1" stop-color="#0163E0"/>
</linearGradient>
</defs>
</svg>
