<svg width="26" height="26" viewBox="0 0 26 26" fill="none" xmlns="http://www.w3.org/2000/svg">
<path d="M5.82759 26H8.93048L4.03445 22.8621L0.0100403 20.5104C0.185794 23.5671 2.72775 26 5.82759 26Z" fill="#FDE494"/>
<path d="M17.0345 24.2069L13.5303 23.3104H5.82761C4.09739 23.3104 2.68968 21.9027 2.68968 20.1724V18.4522L1.34484 17.009L0 17.2467V20.1724C0 20.2859 0.00365625 20.3986 0.0100547 20.5104L8.93049 26H19.5319L17.0345 24.2069Z" fill="#FEA150"/>
<path d="M22.4278 22.3509C21.8568 22.9418 21.057 23.3103 20.1724 23.3103H13.5302L19.5319 26H20.1724C22.2647 26 24.1026 24.8915 25.1307 23.2311L23.7585 22.4138L22.4278 22.3509Z" fill="#FF5D4A"/>
<path d="M23.3103 16.5554V20.1724C23.3103 21.0181 22.9735 21.786 22.4278 22.3509L25.1307 23.2311C25.6815 22.3414 26 21.2935 26 20.1724V16.9831L24.6088 16.2015L23.3103 16.5554Z" fill="#E45261"/>
<path d="M26 7.57606L24.5678 7.23502L23.3103 7.9879V16.5554L26 16.9831V7.57606Z" fill="#FF4D95"/>
<path d="M26 5.82761C26 2.90094 23.8312 0.471561 21.0165 0.0614014L17.4906 1.52857L15.7039 2.68969H20.1724C21.9026 2.68969 23.3103 4.09739 23.3103 5.82761V7.9879L26 7.57606V5.82761Z" fill="#CB319C"/>
<path d="M16.1348 0L12.7994 1.25105L10.1687 2.68968H15.704L21.0165 0.0613437C20.7408 0.0211758 20.4591 0 20.1724 0H16.1348Z" fill="#8A3293"/>
<path d="M13 20.6207C13.9323 20.6207 14.8258 20.4521 15.6521 20.1444L11.2839 18.1615L6.65378 17.2141C8.02071 19.2659 10.355 20.6207 13 20.6207Z" fill="#FF5D4A"/>
<path d="M16.7148 15.5065C15.9082 16.698 14.544 17.4828 13 17.4828C10.9549 17.4828 9.22655 16.1057 8.69035 14.2304L7.48774 13.4788L5.41348 13.7093C5.53297 14.9963 5.97279 16.1918 6.65382 17.214L15.6522 20.1444C17.5972 19.42 19.1681 17.9223 19.9918 16.0276L18.3794 15.2108L16.7148 15.5065Z" fill="#E45261"/>
<path d="M8.51723 13C8.51723 11.889 8.92439 10.8719 9.59618 10.0879L7.68386 9.82037L5.74148 10.6782C5.50661 11.4105 5.3793 12.1906 5.3793 13C5.3793 13.2393 5.39169 13.4756 5.41338 13.7092L8.69029 14.2303C8.57842 13.8391 8.51723 13.4267 8.51723 13Z" fill="#FF4D95"/>
<path d="M20.6207 13C20.6207 11.368 20.1048 9.85429 19.2278 8.61299L17.3288 8.34344L15.3779 9.20251C16.641 9.99627 17.4828 11.4012 17.4828 13C17.4828 13.9278 17.1994 14.7906 16.7148 15.5064L19.9918 16.0276C20.3955 15.099 20.6207 14.0755 20.6207 13Z" fill="#FF4D95"/>
<path d="M13 8.51723C13.8731 8.51723 14.6881 8.76905 15.3779 9.20252L19.2279 8.613C17.8468 6.65828 15.5701 5.3793 13 5.3793C9.60731 5.3793 6.72578 7.60804 5.74149 10.6781L9.59619 10.0878C10.4189 9.12752 11.6392 8.51723 13 8.51723Z" fill="#CB319C"/>
<path d="M20.1724 7.62069C21.1611 7.62069 21.9655 6.81631 21.9655 5.8276C21.9655 4.83889 21.1611 4.03452 20.1724 4.03452C19.1837 4.03452 18.3793 4.83889 18.3793 5.8276C18.3793 6.81631 19.1837 7.62069 20.1724 7.62069Z" fill="#CB319C"/>
<path d="M2.68968 15.9232L1.39496 15.2774L0 15.0473V17.2468L2.68968 18.4522V15.9232Z" fill="#FF5D4A"/>
<path d="M0 12.8484V15.0473L2.68968 15.9232V13.2761L1.29218 12.7737L0 12.8484Z" fill="#E45261"/>
<path d="M2.68968 11.1454L1.30757 11.1329L0 11.5573V12.8484L2.68968 13.2761V11.1454Z" fill="#FF4D95"/>
<path d="M2.68968 9.1283L1.26501 9.27282L0 10.459V11.5573L2.68968 11.1454V9.1283Z" fill="#CB319C"/>
<path d="M0 10.459L2.68968 9.12827V6.06134L1.11211 6.21221L0 7.27395V10.459Z" fill="#8A3293"/>
<path d="M10.4132 0L4.27609 2.36036L0.0704336 4.92212C0.0242227 5.21732 0 5.51967 0 5.82761V7.27396L2.68968 6.0614V5.82755C2.68968 4.09734 4.09739 2.68963 5.82761 2.68963H10.1687L16.1348 0H10.4132Z" fill="#523494"/>
<path d="M5.82761 0C2.92221 0 0.506696 2.13728 0.0704346 4.92212L10.4132 0H5.82761Z" fill="#2D2D87"/>
</svg>
